#!OML:ASF X:\für Bonn\!DataBase\2005_08_10_Bjorn_Final\c3d\bjorn.ASF
:FULLY-SPECIFIED
:DEGREES
172
root -0.787497 19.4374 3.07219 -181.745 -14.0527 -174.495
lowerback -8.16455 -3.99671 2.46614
upperback 5.72679 -5.92992 0.619528
thorax 10.5391 -2.77085 -1.73064
lowerneck -1.35563 0.941498 2.98634
upperneck 23.3921 -0.596196 -2.42709
head 7.37296 -1.04696 -1.44796
rclavicle 5.68027e-014 -2.22639e-014
rhumerus -29.8518 -2.85672 -81.3508
rradius 39.2546
rwrist 14.5651
rhand -11.2717 14.5178
rfingers 7.12502
rthumb 14.7588 -14.9368
lclavicle 5.68027e-014 -2.22639e-014
lhumerus -23.039 -26.3758 87.3998
lradius 48.0908
lwrist -1.73875
lhand -32.9739 -24.0373
lfingers 7.12502
lthumb -6.18905 5.85226
rfemur -24.3445 -11.3078 17.5081
rtibia 56.6523
rfoot -7.61884 -5.51626
rtoes -24.6797
lfemur -7.62974 11.0493 -13.6119
ltibia 25.7447
lfoot -10.6201 -15.499
ltoes 9.00595
173
root -0.789716 19.4152 3.02928 -181.368 -13.0172 -174.832
lowerback -8.73458 -3.75198 2.59034
upperback 5.55699 -5.62363 0.703736
thorax 10.6991 -2.60571 -1.69644
lowerneck -1.16772 1.03999 3.05406
upperneck 23.3869 -0.392638 -2.86385
head 7.34102 -0.989452 -1.58933
rclavicle 4.63665e-014 -2.10712e-014
rhumerus -29.1297 -3.05687 -81.5026
rradius 38.9666
rwrist 14.7713
rhand -11.5082 14.6522
rfingers 7.12502
rthumb 14.5309 -14.8189
lclavicle 4.63665e-014 -2.10712e-014
lhumerus -24.4137 -25.3415 88.0911
lradius 46.4909
lwrist -2.75881
lhand -32.5201 -23.395
lfingers 7.12502
lthumb -5.75087 6.50695
rfemur -23.0994 -11.9153 17.2499
rtibia 54.5997
rfoot -7.94103 -4.99197
rtoes -25.3092
lfemur -7.89788 12.1225 -13.8524
ltibia 26.2524
lfoot -10.9721 -15.7097
ltoes 8.91462
174
root -0.788896 19.3884 2.98554 -180.983 -11.9696 -175.165
lowerback -9.29832 -3.50273 2.69421
upperback 5.40238 -5.31268 0.787895
thorax 10.8748 -2.44068 -1.64604
lowerneck -1.06126 1.14932 3.06734
upperneck 23.3793 -0.175243 -3.24158
head 7.32428 -0.921867 -1.70158
rclavicle -4.4155e-014 1.55052e-014
rhumerus -28.4054 -3.24258 -81.6666
rradius 38.6859
rwrist 15.0107
rhand -11.7399 14.708
rfingers 7.12502
rthumb 14.3076 -14.7791
lclavicle -4.4155e-014 1.55052e-014
lhumerus -25.7098 -24.1957 88.6699
lradius 45.0204
lwrist -3.67906
lhand -31.8986 -22.7041
lfingers 7.12502
lthumb -5.15083 7.21327
rfemur -21.9463 -12.6334 16.9925
rtibia 52.6229
rfoot -8.39305 -4.28932
rtoes -26.6014
lfemur -8.24592 13.2248 -14.0856
ltibia 26.8761
lfoot -11.384 -15.9404
ltoes 8.93407
175
root -0.783028 19.3559 2.93896 -180.642 -10.953 -175.453
lowerback -9.86074 -3.24817 2.81694
upperback 5.28228 -5.00058 0.850682
thorax 11.0853 -2.27316 -1.62553
lowerneck -1.03495 1.25165 3.10019
upperneck 23.4206 0.0168264 -3.56084
head 7.3383 -0.860193 -1.80115
rclavicle -3.45388e-014 1.09332e-014
rhumerus -27.7001 -3.4458 -81.898
rradius 38.4439
rwrist 15.2193
rhand -11.9554 14.6713
rfingers 7.12502
rthumb 14.1 -14.8304
lclavicle -3.45388e-014 1.09332e-014
lhumerus -26.9257 -22.9608 89.1131
lradius 43.6595
lwrist -4.41416
lhand -31.0425 -21.9511
lfingers 7.12502
lthumb -4.32421 7.98476
rfemur -20.8054 -13.3959 16.7847
rtibia 50.7214
rfoot -9.03363 -3.4907
rtoes -28.1734
lfemur -8.62252 14.3976 -14.2493
ltibia 27.6119
lfoot -11.809 -16.3003
ltoes 8.88449
176
root -0.773917 19.3193 2.89119 -180.332 -9.98952 -175.7
lowerback -10.3858 -3.01933 2.93171
upperback 5.17312 -4.72745 0.935701
thorax 11.2877 -2.12773 -1.57744
lowerneck -1.0502 1.35471 3.10362
upperneck 23.4584 0.218423 -3.89582
head 7.35935 -0.796912 -1.90042
rclavicle -2.35808e-014 1.98785e-015
rhumerus -26.9688 -3.64347 -82.1232
rradius 38.0994
rwrist 15.4776
rhand -12.1983 14.6914
rfingers 7.12502
rthumb 13.8659 -14.8263
lclavicle -2.35808e-014 1.98785e-015
lhumerus -28.0872 -21.3937 89.4519
lradius 42.404
lwrist -5.12047
lhand -29.8826 -21.285
lfingers 7.12502
lthumb -3.2041 8.67065
rfemur -19.715 -14.1746 16.6201
rtibia 48.9108
rfoot -9.81217 -2.64997
rtoes -29.4158
lfemur -9.0172 15.5218 -14.365
ltibia 28.3983
lfoot -12.2937 -16.649
ltoes 8.578
177
root -0.762912 19.2788 2.8451 -180.011 -8.998 -175.925
lowerback -10.9036 -2.77746 3.09828
upperback 5.07775 -4.44355 0.984097
thorax 11.4952 -1.97205 -1.59142
lowerneck -1.12631 -1.25863 3.20416
upperneck 23.2857 1.26734 -5.02672
head 7.32812 1.31625 -2.0016
rclavicle -4.04527e-014 2.31584e-014
rhumerus -26.2031 -3.95437 -82.4166
rradius 37.6673
rwrist 15.7351
rhand -12.4391 14.6877
rfingers 7.12502
rthumb 13.6338 -14.8458
lclavicle -4.04527e-014 2.31584e-014
lhumerus -29.2426 -19.6806 89.6121
lradius 41.3695
lwrist -5.71291
lhand -28.504 -20.5857
lfingers 7.12502
lthumb -1.87266 9.38581
rfemur -18.7378 -14.8074 16.4862
rtibia 47.2042
rfoot -10.688 -1.7183
rtoes -29.9793
lfemur -9.41258 16.623 -14.4671
ltibia 29.1479
lfoot -12.699 -16.9843
ltoes 8.59976
178
root -0.752134 19.2442 2.79971 -179.718 -7.98897 -176.146
lowerback -11.3758 -2.53796 3.30976
upperback 5.00324 -4.16613 0.981246
thorax 11.6927 -1.8145 -1.68133
lowerneck -1.21249 -1.13097 3.31215
upperneck 23.2927 1.48989 -5.30003
head 7.35686 1.40678 -2.09568
rclavicle -3.63217e-014 2.2413e-014
rhumerus -25.4255 -4.3299 -82.7968
rradius 37.1789
rwrist 16.1232
rhand -12.6579 14.6932
rfingers 7.12502
rthumb 13.423 -14.8543
lclavicle -3.63217e-014 2.2413e-014
lhumerus -30.3769 -17.7797 89.552
lradius 40.5332
lwrist -6.26278
lhand -26.8631 -19.9376
lfingers 7.12502
lthumb -0.287882 10.0419
rfemur -17.8411 -15.2708 16.3467
rtibia 45.6095
rfoot -11.6506 -0.759661
rtoes -29.9869
lfemur -9.7277 17.6583 -14.5793
ltibia 29.7987
lfoot -13.1188 -17.1636
ltoes 8.2462
